<?xml version="1.0" standalone="no"?>
<svg xmlns:xlink="http://www.w3.org/1999/xlink" id="wave" style="transform:rotate(0deg); transition: 0.3s" viewBox="0 0 1440 490" version="1.1" xmlns="http://www.w3.org/2000/svg"><defs><linearGradient id="sw-gradient-0" x1="0" x2="0" y1="1" y2="0"><stop stop-color="rgba(241.659, 0, 0, 1)" offset="0%"/><stop stop-color="rgba(11, 255, 221.939, 1)" offset="100%"/></linearGradient></defs><path style="transform:translate(0, 0px); opacity:1" fill="url(#sw-gradient-0)" d="M0,49L80,65.3C160,82,320,114,480,114.3C640,114,800,82,960,65.3C1120,49,1280,49,1440,49C1600,49,1760,49,1920,81.7C2080,114,2240,180,2400,196C2560,212,2720,180,2880,179.7C3040,180,3200,212,3360,212.3C3520,212,3680,180,3840,155.2C4000,131,4160,114,4320,106.2C4480,98,4640,98,4800,147C4960,196,5120,294,5280,351.2C5440,408,5600,425,5760,416.5C5920,408,6080,376,6240,375.7C6400,376,6560,408,6720,351.2C6880,294,7040,147,7200,106.2C7360,65,7520,131,7680,204.2C7840,278,8000,359,8160,343C8320,327,8480,212,8640,196C8800,180,8960,261,9120,253.2C9280,245,9440,147,9600,147C9760,147,9920,245,10080,253.2C10240,261,10400,180,10560,163.3C10720,147,10880,196,11040,204.2C11200,212,11360,180,11440,163.3L11520,147L11520,490L11440,490C11360,490,11200,490,11040,490C10880,490,10720,490,10560,490C10400,490,10240,490,10080,490C9920,490,9760,490,9600,490C9440,490,9280,490,9120,490C8960,490,8800,490,8640,490C8480,490,8320,490,8160,490C8000,490,7840,490,7680,490C7520,490,7360,490,7200,490C7040,490,6880,490,6720,490C6560,490,6400,490,6240,490C6080,490,5920,490,5760,490C5600,490,5440,490,5280,490C5120,490,4960,490,4800,490C4640,490,4480,490,4320,490C4160,490,4000,490,3840,490C3680,490,3520,490,3360,490C3200,490,3040,490,2880,490C2720,490,2560,490,2400,490C2240,490,2080,490,1920,490C1760,490,1600,490,1440,490C1280,490,1120,490,960,490C800,490,640,490,480,490C320,490,160,490,80,490L0,490Z"/><defs><linearGradient id="sw-gradient-1" x1="0" x2="0" y1="1" y2="0"><stop stop-color="rgba(243, 106, 62, 1)" offset="0%"/><stop stop-color="rgba(11, 155.816, 255, 1)" offset="100%"/></linearGradient></defs><path style="transform:translate(0, 50px); opacity:0.9" fill="url(#sw-gradient-1)" d="M0,392L80,367.5C160,343,320,294,480,228.7C640,163,800,82,960,49C1120,16,1280,33,1440,57.2C1600,82,1760,114,1920,163.3C2080,212,2240,278,2400,277.7C2560,278,2720,212,2880,228.7C3040,245,3200,343,3360,343C3520,343,3680,245,3840,196C4000,147,4160,147,4320,196C4480,245,4640,343,4800,343C4960,343,5120,245,5280,187.8C5440,131,5600,114,5760,130.7C5920,147,6080,196,6240,187.8C6400,180,6560,114,6720,122.5C6880,131,7040,212,7200,204.2C7360,196,7520,98,7680,81.7C7840,65,8000,131,8160,138.8C8320,147,8480,98,8640,138.8C8800,180,8960,310,9120,367.5C9280,425,9440,408,9600,351.2C9760,294,9920,196,10080,138.8C10240,82,10400,65,10560,73.5C10720,82,10880,114,11040,179.7C11200,245,11360,343,11440,392L11520,441L11520,490L11440,490C11360,490,11200,490,11040,490C10880,490,10720,490,10560,490C10400,490,10240,490,10080,490C9920,490,9760,490,9600,490C9440,490,9280,490,9120,490C8960,490,8800,490,8640,490C8480,490,8320,490,8160,490C8000,490,7840,490,7680,490C7520,490,7360,490,7200,490C7040,490,6880,490,6720,490C6560,490,6400,490,6240,490C6080,490,5920,490,5760,490C5600,490,5440,490,5280,490C5120,490,4960,490,4800,490C4640,490,4480,490,4320,490C4160,490,4000,490,3840,490C3680,490,3520,490,3360,490C3200,490,3040,490,2880,490C2720,490,2560,490,2400,490C2240,490,2080,490,1920,490C1760,490,1600,490,1440,490C1280,490,1120,490,960,490C800,490,640,490,480,490C320,490,160,490,80,490L0,490Z"/><defs><linearGradient id="sw-gradient-2" x1="0" x2="0" y1="1" y2="0"><stop stop-color="rgba(0, 198.401, 171.518, 1)" offset="0%"/><stop stop-color="rgba(255, 179, 11, 1)" offset="100%"/></linearGradient></defs><path style="transform:translate(0, 100px); opacity:0.8" fill="url(#sw-gradient-2)" d="M0,49L80,98C160,147,320,245,480,310.3C640,376,800,408,960,408.3C1120,408,1280,376,1440,359.3C1600,343,1760,343,1920,294C2080,245,2240,147,2400,114.3C2560,82,2720,114,2880,179.7C3040,245,3200,343,3360,343C3520,343,3680,245,3840,204.2C4000,163,4160,180,4320,212.3C4480,245,4640,294,4800,261.3C4960,229,5120,114,5280,65.3C5440,16,5600,33,5760,57.2C5920,82,6080,114,6240,179.7C6400,245,6560,343,6720,359.3C6880,376,7040,310,7200,310.3C7360,310,7520,376,7680,392C7840,408,8000,376,8160,318.5C8320,261,8480,180,8640,171.5C8800,163,8960,229,9120,228.7C9280,229,9440,163,9600,187.8C9760,212,9920,327,10080,310.3C10240,294,10400,147,10560,81.7C10720,16,10880,33,11040,81.7C11200,131,11360,212,11440,253.2L11520,294L11520,490L11440,490C11360,490,11200,490,11040,490C10880,490,10720,490,10560,490C10400,490,10240,490,10080,490C9920,490,9760,490,9600,490C9440,490,9280,490,9120,490C8960,490,8800,490,8640,490C8480,490,8320,490,8160,490C8000,490,7840,490,7680,490C7520,490,7360,490,7200,490C7040,490,6880,490,6720,490C6560,490,6400,490,6240,490C6080,490,5920,490,5760,490C5600,490,5440,490,5280,490C5120,490,4960,490,4800,490C4640,490,4480,490,4320,490C4160,490,4000,490,3840,490C3680,490,3520,490,3360,490C3200,490,3040,490,2880,490C2720,490,2560,490,2400,490C2240,490,2080,490,1920,490C1760,490,1600,490,1440,490C1280,490,1120,490,960,490C800,490,640,490,480,490C320,490,160,490,80,490L0,490Z"/><defs><linearGradient id="sw-gradient-3" x1="0" x2="0" y1="1" y2="0"><stop stop-color="rgba(62, 243, 200.081, 1)" offset="0%"/><stop stop-color="rgba(255, 179, 11, 1)" offset="100%"/></linearGradient></defs><path style="transform:translate(0, 150px); opacity:0.7" fill="url(#sw-gradient-3)" d="M0,147L80,122.5C160,98,320,49,480,40.8C640,33,800,65,960,98C1120,131,1280,163,1440,212.3C1600,261,1760,327,1920,367.5C2080,408,2240,425,2400,367.5C2560,310,2720,180,2880,179.7C3040,180,3200,310,3360,351.2C3520,392,3680,343,3840,334.8C4000,327,4160,359,4320,318.5C4480,278,4640,163,4800,147C4960,131,5120,212,5280,253.2C5440,294,5600,294,5760,269.5C5920,245,6080,196,6240,204.2C6400,212,6560,278,6720,318.5C6880,359,7040,376,7200,392C7360,408,7520,425,7680,416.5C7840,408,8000,376,8160,343C8320,310,8480,278,8640,236.8C8800,196,8960,147,9120,138.8C9280,131,9440,163,9600,196C9760,229,9920,261,10080,253.2C10240,245,10400,196,10560,171.5C10720,147,10880,147,11040,138.8C11200,131,11360,114,11440,106.2L11520,98L11520,490L11440,490C11360,490,11200,490,11040,490C10880,490,10720,490,10560,490C10400,490,10240,490,10080,490C9920,490,9760,490,9600,490C9440,490,9280,490,9120,490C8960,490,8800,490,8640,490C8480,490,8320,490,8160,490C8000,490,7840,490,7680,490C7520,490,7360,490,7200,490C7040,490,6880,490,6720,490C6560,490,6400,490,6240,490C6080,490,5920,490,5760,490C5600,490,5440,490,5280,490C5120,490,4960,490,4800,490C4640,490,4480,490,4320,490C4160,490,4000,490,3840,490C3680,490,3520,490,3360,490C3200,490,3040,490,2880,490C2720,490,2560,490,2400,490C2240,490,2080,490,1920,490C1760,490,1600,490,1440,490C1280,490,1120,490,960,490C800,490,640,490,480,490C320,490,160,490,80,490L0,490Z"/></svg>